<?xml version="1.0" encoding="UTF-8"?>
<svg xmlns="http://www.w3.org/2000/svg" xmlns:xlink="http://www.w3.org/1999/xlink" width="2000" height="2000" viewBox="0 0 2000 2000">

<path fill-rule="evenodd" fill="rgb(95.701599%, 96.875%, 98.046875%)" fill-opacity="1" d="M 1908.238281 1915.15625 L 1889.179688 1915.15625 C 1888.300781 1915.15625 1887.589844 1915.871094 1887.589844 1916.746094 L 1887.589844 1935.800781 C 1887.589844 1936.679688 1888.300781 1937.394531 1889.179688 1937.394531 L 1908.238281 1937.394531 C 1909.109375 1937.394531 1909.828125 1936.679688 1909.828125 1935.800781 L 1909.828125 1916.746094 C 1909.828125 1915.871094 1909.109375 1915.15625 1908.238281 1915.15625 "/>
<path fill-rule="evenodd" fill="rgb(95.701599%, 96.875%, 98.046875%)" fill-opacity="1" d="M 1865.28125 1916.171875 L 1847.089844 1916.171875 C 1846.261719 1916.171875 1845.578125 1916.855469 1845.578125 1917.691406 L 1845.578125 1935.875 C 1845.578125 1936.710938 1846.261719 1937.394531 1847.089844 1937.394531 L 1865.28125 1937.394531 C 1866.109375 1937.394531 1866.800781 1936.710938 1866.800781 1935.875 L 1866.800781 1917.691406 C 1866.800781 1916.855469 1866.109375 1916.171875 1865.28125 1916.171875 "/>
<path fill-rule="evenodd" fill="rgb(95.701599%, 96.875%, 98.046875%)" fill-opacity="1" d="M 1822.320312 1917.1875 L 1805.011719 1917.1875 C 1804.210938 1917.1875 1803.558594 1917.839844 1803.558594 1918.636719 L 1803.558594 1935.949219 C 1803.558594 1936.742188 1804.210938 1937.394531 1805.011719 1937.394531 L 1822.320312 1937.394531 C 1823.121094 1937.394531 1823.769531 1936.742188 1823.769531 1935.949219 L 1823.769531 1918.636719 C 1823.769531 1917.839844 1823.121094 1917.1875 1822.320312 1917.1875 "/>
<path fill-rule="evenodd" fill="rgb(95.701599%, 96.875%, 98.046875%)" fill-opacity="1" d="M 1779.371094 1918.207031 L 1762.929688 1918.207031 C 1762.171875 1918.207031 1761.550781 1918.824219 1761.550781 1919.582031 L 1761.550781 1936.019531 C 1761.550781 1936.777344 1762.171875 1937.394531 1762.929688 1937.394531 L 1779.371094 1937.394531 C 1780.121094 1937.394531 1780.738281 1936.777344 1780.738281 1936.019531 L 1780.738281 1919.582031 C 1780.738281 1918.824219 1780.121094 1918.207031 1779.371094 1918.207031 "/>
<path fill-rule="evenodd" fill="rgb(95.701599%, 96.875%, 98.046875%)" fill-opacity="1" d="M 1736.410156 1919.222656 L 1720.839844 1919.222656 C 1720.128906 1919.222656 1719.539062 1919.808594 1719.539062 1920.523438 L 1719.539062 1936.09375 C 1719.539062 1936.808594 1720.128906 1937.394531 1720.839844 1937.394531 L 1736.410156 1937.394531 C 1737.128906 1937.394531 1737.710938 1936.808594 1737.710938 1936.09375 L 1737.710938 1920.523438 C 1737.710938 1919.808594 1737.128906 1919.222656 1736.410156 1919.222656 "/>
<path fill-rule="evenodd" fill="rgb(95.701599%, 96.875%, 98.046875%)" fill-opacity="1" d="M 1693.460938 1920.238281 L 1678.761719 1920.238281 C 1678.078125 1920.238281 1677.53125 1920.792969 1677.53125 1921.46875 L 1677.53125 1936.167969 C 1677.53125 1936.84375 1678.078125 1937.394531 1678.761719 1937.394531 L 1693.460938 1937.394531 C 1694.128906 1937.394531 1694.679688 1936.84375 1694.679688 1936.167969 L 1694.679688 1921.46875 C 1694.679688 1920.792969 1694.128906 1920.238281 1693.460938 1920.238281 "/>
<path fill-rule="evenodd" fill="rgb(95.701599%, 96.875%, 98.046875%)" fill-opacity="1" d="M 1650.5 1921.257812 L 1636.671875 1921.257812 C 1636.039062 1921.257812 1635.519531 1921.777344 1635.519531 1922.414062 L 1635.519531 1936.238281 C 1635.519531 1936.875 1636.039062 1937.394531 1636.671875 1937.394531 L 1650.5 1937.394531 C 1651.140625 1937.394531 1651.648438 1936.875 1651.648438 1936.238281 L 1651.648438 1922.414062 C 1651.648438 1921.777344 1651.140625 1921.257812 1650.5 1921.257812 "/>
<path fill-rule="evenodd" fill="rgb(95.701599%, 96.875%, 98.046875%)" fill-opacity="1" d="M 1607.539062 1922.273438 L 1594.589844 1922.273438 C 1593.988281 1922.273438 1593.511719 1922.761719 1593.511719 1923.355469 L 1593.511719 1936.3125 C 1593.511719 1936.90625 1593.988281 1937.394531 1594.589844 1937.394531 L 1607.539062 1937.394531 C 1608.140625 1937.394531 1608.628906 1936.90625 1608.628906 1936.3125 L 1608.628906 1923.355469 C 1608.628906 1922.761719 1608.140625 1922.273438 1607.539062 1922.273438 "/>
<path fill-rule="evenodd" fill="rgb(95.701599%, 96.875%, 98.046875%)" fill-opacity="1" d="M 1564.589844 1923.292969 L 1552.5 1923.292969 C 1551.949219 1923.292969 1551.488281 1923.746094 1551.488281 1924.300781 L 1551.488281 1936.386719 C 1551.488281 1936.941406 1551.949219 1937.394531 1552.5 1937.394531 L 1564.589844 1937.394531 C 1565.140625 1937.394531 1565.601562 1936.941406 1565.601562 1936.386719 L 1565.601562 1924.300781 C 1565.601562 1923.746094 1565.140625 1923.292969 1564.589844 1923.292969 "/>
<path fill-rule="evenodd" fill="rgb(23.535156%, 43.920898%, 72.851562%)" fill-opacity="1" d="M 999.960938 69.859375 C 1511.558594 69.859375 1930.140625 488.441406 1930.140625 1000.039062 C 1930.140625 1511.636719 1511.558594 1930.21875 999.960938 1930.21875 C 488.363281 1930.21875 69.78125 1511.636719 69.78125 1000.039062 C 69.78125 488.441406 488.363281 69.859375 999.960938 69.859375 "/>
<path fill-rule="evenodd" fill="rgb(18.041992%, 34.910583%, 53.709412%)" fill-opacity="1" d="M 1195.46875 1909.335938 C 1132.378906 1922.96875 1066.980469 1930.21875 999.960938 1930.21875 C 488.363281 1930.21875 69.78125 1511.636719 69.78125 1000.039062 C 69.78125 991.53125 69.917969 983.050781 70.148438 974.589844 L 461.792969 649.101562 L 529.726562 679.78125 L 800.921875 522.699219 L 1180.199219 540.710938 L 1174.378906 701.628906 L 1310.5 655.179688 L 1493.171875 649.101562 L 1584.199219 1482.535156 L 1195.46875 1909.335938 "/>
<path fill-rule="evenodd" fill="rgb(100%, 100%, 100%)" fill-opacity="1" d="M 1161.378906 650.050781 L 1161.378906 565.820312 L 838.539062 565.820312 L 838.539062 650.050781 Z M 786.195312 650.050781 L 786.195312 551.910156 C 786.195312 540.121094 791.839844 529.808594 800.921875 522.699219 C 808.195312 517.011719 817.824219 513.46875 828.042969 513.46875 L 1171.871094 513.46875 C 1182.089844 513.46875 1191.71875 517.011719 1198.988281 522.699219 C 1208.078125 529.808594 1213.71875 540.121094 1213.71875 551.910156 L 1213.71875 650.050781 C 1987.101562 650.050781 146.46875 650.050781 786.195312 650.050781 "/>
<path fill-rule="evenodd" fill="rgb(100%, 100%, 100%)" fill-opacity="1" d="M 461.792969 649.101562 L 551.710938 649.101562 L 551.710938 1014.078125 C 551.710938 1030.089844 559.554688 1044.230469 572.191406 1054.121094 C 583.015625 1062.59375 597.539062 1067.855469 613.152344 1067.855469 L 1386.769531 1067.855469 C 1402.378906 1067.855469 1416.898438 1062.59375 1427.730469 1054.121094 C 1440.359375 1044.234375 1448.210938 1030.089844 1448.210938 1014.078125 L 1448.210938 649.101562 L 1538.128906 649.101562 C 1565.121094 649.101562 1587.199219 671.179688 1587.199219 698.171875 L 1587.199219 1437.535156 C 1587.199219 1464.527344 1565.121094 1486.609375 1538.128906 1486.609375 L 461.792969 1486.609375 C 434.804688 1486.609375 412.722656 1464.527344 412.722656 1437.535156 L 412.722656 698.171875 C 412.722656 671.179688 434.804688 649.101562 461.792969 649.101562 Z M 838.542969 649.101562 L 1395.859375 649.101562 L 1395.859375 1013.328125 L 1395.691406 1013.105469 C 1395.671875 1013.039062 1395.648438 1013.003906 1395.621094 1013.023438 C 1393.671875 1014.554688 1390.550781 1015.507812 1386.769531 1015.507812 L 613.152344 1015.507812 C 609.363281 1015.507812 606.25 1014.554688 604.292969 1013.023438 C 604.269531 1013.003906 604.25 1013.039062 604.226562 1013.105469 L 604.054688 1013.328125 L 604.054688 649.101562 Z M 1395.859375 1014.078125 L 1395.859375 1013.328125 L 1395.691406 1013.105469 C 1395.800781 1013.464844 1395.859375 1014.777344 1395.859375 1014.078125 Z M 604.054688 1014.078125 C 604.054688 1014.777344 604.121094 1013.46875 604.226562 1013.105469 L 604.054688 1013.328125 L 604.054688 1014.078125 "/>
</svg>
